<svg xmlns="http://www.w3.org/2000/svg" viewBox="0 0 800 600" width="800" height="600">
  <!-- Background -->
  <rect x="50" y="50" width="700" height="500" rx="20" ry="20" fill="#f8f9fa" />
  
  <!-- Document -->
  <rect x="100" y="100" width="300" height="400" rx="10" ry="10" fill="white" stroke="#dee2e6" stroke-width="2" />
  
  <!-- Document header -->
  <rect x="120" y="120" width="260" height="30" rx="5" ry="5" fill="#1a3a5f" />
  
  <!-- Document lines -->
  <rect x="120" y="170" width="260" height="8" rx="2" ry="2" fill="#e9ecef" />
  <rect x="120" y="190" width="200" height="8" rx="2" ry="2" fill="#e9ecef" />
  <rect x="120" y="210" width="240" height="8" rx="2" ry="2" fill="#e9ecef" />
  <rect x="120" y="230" width="180" height="8" rx="2" ry="2" fill="#e9ecef" />
  <rect x="120" y="250" width="260" height="8" rx="2" ry="2" fill="#e9ecef" />
  <rect x="120" y="270" width="220" height="8" rx="2" ry="2" fill="#e9ecef" />
  <rect x="120" y="290" width="260" height="8" rx="2" ry="2" fill="#e9ecef" />
  <rect x="120" y="310" width="160" height="8" rx="2" ry="2" fill="#e9ecef" />
  <rect x="120" y="330" width="240" height="8" rx="2" ry="2" fill="#e9ecef" />
  <rect x="120" y="350" width="260" height="8" rx="2" ry="2" fill="#e9ecef" />
  <rect x="120" y="370" width="200" height="8" rx="2" ry="2" fill="#e9ecef" />
  <rect x="120" y="390" width="260" height="8" rx="2" ry="2" fill="#e9ecef" />
  <rect x="120" y="410" width="180" height="8" rx="2" ry="2" fill="#e9ecef" />
  <rect x="120" y="430" width="240" height="8" rx="2" ry="2" fill="#e9ecef" />
  <rect x="120" y="450" width="220" height="8" rx="2" ry="2" fill="#e9ecef" />
  
  <!-- Chat bubble 1 -->
  <rect x="450" y="150" width="250" height="80" rx="20" ry="20" fill="#1a3a5f" />
  <polygon points="450,190 430,200 450,210" fill="#1a3a5f" />
  <rect fill="rgba(255,255,255)" x="475" y="174" width="200" height="14" rx="2"></rect>
  <rect fill="rgba(255,255,255)" x="475" y="197" width="130" height="14" rx="2"></rect>
  
  <!-- Chat bubble 2 -->
  <rect x="450" y="260" width="250" height="100" rx="20" ry="20" fill="#ffffff" stroke="#000000" stroke-width="1" />
  <polygon points="450,300 430,310 450,320" fill="#ffffff" />
  <polygon points="450,300 430,310 450,320" fill="none" stroke="#000000" stroke-width="1" />
  <rect fill="#1a3a5f" x="475" y="275.5" width="200" height="18" rx="2"></rect>
  <rect fill="#1a3a5f" x="475" y="301.5" width="200" height="18" rx="2"></rect>
  <rect fill="#1a3a5f" x="475" y="326.5" width="130" height="18" rx="2"></rect>
  
  <!-- Chat bubble 3 -->
  <rect x="450" y="390" width="250" height="80" rx="20" ry="20" fill="#1a3a5f" />
  <polygon points="450,430 430,440 450,450" fill="#1a3a5f" />
  <rect fill="rgba(255,255,255)" x="475" y="415" width="200" height="14" rx="2"></rect>
  <rect fill="rgba(255,255,255)" x="475" y="435" width="130" height="14" rx="2"></rect>
  
  <!-- Federal Register logo -->
  <circle cx="155" cy="135" r="15" fill="white" />
  <text x="146.5" y="140.5" font-family="Arial" font-weight="bold" font-size="14" fill="#1a3a5f">FR</text>
  
  <!-- Document title -->
  <text x="180" y="140" font-family="Arial" font-weight="bold" font-size="16" fill="white">Executive Order 14008</text>
  
  <!-- Animation effect with gradient overlay -->
  <defs>
    <linearGradient id="chatGradient" x1="0%" y1="0%" x2="100%" y2="0%">
      <stop offset="0%" stop-color="#1a3a5f" stop-opacity="0.1"/>
      <stop offset="50%" stop-color="#4a90e2" stop-opacity="0.1"/>
      <stop offset="100%" stop-color="#1a3a5f" stop-opacity="0.1"/>
    </linearGradient>
  </defs>
  
  <!-- Decorative elements -->
  <circle cx="700" cy="150" r="30" fill="url(#chatGradient)" opacity="0.3" />
  <circle cx="680" cy="450" r="20" fill="url(#chatGradient)" opacity="0.2" />
  <circle cx="100" cy="500" r="25" fill="url(#chatGradient)" opacity="0.25" />
</svg> 